{
	"asset":{
		"generator":"Khronos glTF Blender I/O v3.6.27",
		"version":"2.0"
	},
	"scene":0,
	"scenes":[
		{
			"name":"Scene",
			"nodes":[
				5
			]
		}
	],
	"nodes":[
		{
			"name":"Lamp.001"
		},
		{
			"children":[
				0
			],
			"name":"Lamp",
			"rotation":[
				0.6385520696640015,
				-0.18948839604854584,
				0.4383998215198517,
				0.603449285030365
			],
			"scale":[
				0.9999966621398926,
				0.9999960064888,
				1
			],
			"translation":[
				-5.495120048522949,
				-10.27273941040039,
				9.218070030212402
			]
		},
		{
			"mesh":0,
			"name":"Pieza1_0",
			"scale":[
				0.3273429870605469,
				0.32734301686286926,
				0.32734301686286926
			],
			"translation":[
				0,
				0,
				57.606468200683594
			]
		},
		{
			"children":[
				2
			],
			"name":"Pieza1",
			"scale":[
				0.01092000026255846,
				0.01092000026255846,
				0.01092000026255846
			]
		},
		{
			"children":[
				1,
				3
			],
			"name":"Root"
		},
		{
			"children":[
				4
			],
			"name":"Sketchfab_model",
			"rotation":[
				-0.70710688829422,
				0,
				0,
				0.7071066498756409
			],
			"scale":[
				2.777777671813965,
				2.777777910232544,
				2.777777910232544
			]
		}
	],
	"materials":[
		{
			"doubleSided":true,
			"name":"Material.002",
			"normalTexture":{
				"index":0,
				"scale":0.09999999403953552
			},
			"pbrMetallicRoughness":{
				"baseColorTexture":{
					"index":1
				},
				"metallicFactor":0,
				"metallicRoughnessTexture":{
					"index":2
				}
			}
		},
		{
			"doubleSided":true,
			"name":"Material.001",
			"normalTexture":{
				"index":3
			},
			"pbrMetallicRoughness":{
				"baseColorTexture":{
					"index":4
				},
				"metallicFactor":0,
				"metallicRoughnessTexture":{
					"index":5
				}
			}
		}
	],
	"meshes":[
		{
			"name":"Pieza1_0",
			"primitives":[
				{
					"attributes":{
						"POSITION":0,
						"NORMAL":1,
						"TEXCOORD_0":2
					},
					"indices":3,
					"material":0
				},
				{
					"attributes":{
						"POSITION":4,
						"NORMAL":5,
						"TEXCOORD_0":6
					},
					"indices":7,
					"material":1
				}
			]
		}
	],
	"textures":[
		{
			"sampler":0,
			"source":0
		},
		{
			"sampler":0,
			"source":1
		},
		{
			"sampler":0,
			"source":2
		},
		{
			"sampler":0,
			"source":0
		},
		{
			"sampler":0,
			"source":3
		},
		{
			"sampler":0,
			"source":2
		}
	],
	"images":[
		{
			"mimeType":"image/jpeg",
			"name":"PavingStones042_1K-JPG_NormalDX",
			"uri":"textures/PavingStones042_1K-JPG_NormalDX.jpg"
		},
		{
			"mimeType":"image/jpeg",
			"name":"PavingStones042_1K-JPG_Color",
			"uri":"textures/PavingStones042_1K-JPG_Color.jpg"
		},
		{
			"mimeType":"image/png",
			"name":"PavingStones042_1K-JPG_Roughness",
			"uri":"textures/PavingStones042_1K-JPG_Roughness.png"
		},
		{
			"mimeType":"image/jpeg",
			"name":"PavingStones042_1K-JPG_Color",
			"uri":"textures/PavingStones042_1K-JPG_Color-1.jpg"
		}
	],
	"accessors":[
		{
			"bufferView":0,
			"componentType":5126,
			"count":8359,
			"max":[
				340.34912109375,
				337.034912109375,
				166.37841796875
			],
			"min":[
				-338.509521484375,
				-336.979736328125,
				-168.33795166015625
			],
			"type":"VEC3"
		},
		{
			"bufferView":1,
			"componentType":5126,
			"count":8359,
			"type":"VEC3"
		},
		{
			"bufferView":2,
			"componentType":5126,
			"count":8359,
			"type":"VEC2"
		},
		{
			"bufferView":3,
			"componentType":5123,
			"count":10146,
			"type":"SCALAR"
		},
		{
			"bufferView":4,
			"componentType":5126,
			"count":1929,
			"max":[
				144.7451171875,
				143.90380859375,
				172.84033203125
			],
			"min":[
				-143.959228515625,
				-144.800537109375,
				60.032039642333984
			],
			"type":"VEC3"
		},
		{
			"bufferView":5,
			"componentType":5126,
			"count":1929,
			"type":"VEC3"
		},
		{
			"bufferView":6,
			"componentType":5126,
			"count":1929,
			"type":"VEC2"
		},
		{
			"bufferView":7,
			"componentType":5123,
			"count":2616,
			"type":"SCALAR"
		}
	],
	"bufferViews":[
		{
			"buffer":0,
			"byteLength":100308,
			"byteOffset":0,
			"target":34962
		},
		{
			"buffer":0,
			"byteLength":100308,
			"byteOffset":100308,
			"target":34962
		},
		{
			"buffer":0,
			"byteLength":66872,
			"byteOffset":200616,
			"target":34962
		},
		{
			"buffer":0,
			"byteLength":20292,
			"byteOffset":267488,
			"target":34963
		},
		{
			"buffer":0,
			"byteLength":23148,
			"byteOffset":287780,
			"target":34962
		},
		{
			"buffer":0,
			"byteLength":23148,
			"byteOffset":310928,
			"target":34962
		},
		{
			"buffer":0,
			"byteLength":15432,
			"byteOffset":334076,
			"target":34962
		},
		{
			"buffer":0,
			"byteLength":5232,
			"byteOffset":349508,
			"target":34963
		}
	],
	"samplers":[
		{
			"magFilter":9729,
			"minFilter":9987
		}
	],
	"buffers":[
		{
			"byteLength":354740,
			"uri":"dzibilchaltun.bin"
		}
	]
}
