{
	"asset":{
		"generator":"Khronos glTF Blender I/O v3.6.27",
		"version":"2.0"
	},
	"scene":0,
	"scenes":[
		{
			"name":"Scene",
			"nodes":[
				6
			]
		}
	],
	"nodes":[
		{
			"mesh":0,
			"name":"Object_3",
			"translation":[
				15.58741283416748,
				18.393938064575195,
				9.091304779052734
			]
		},
		{
			"mesh":1,
			"name":"Object_4",
			"translation":[
				15.253249168395996,
				19.162904739379883,
				9.659759521484375
			]
		},
		{
			"mesh":2,
			"name":"Object_5",
			"translation":[
				15.665804862976074,
				18.29183578491211,
				8.839115142822266
			]
		},
		{
			"mesh":3,
			"name":"Object_6",
			"translation":[
				13.982641220092773,
				24.459768295288086,
				14.100472450256348
			]
		},
		{
			"children":[
				0,
				1,
				2,
				3
			],
			"name":"Object_2"
		},
		{
			"children":[
				4
			],
			"name":"Chichen Itza and Yucatan_240517.OBJ.cleaner.materialmerger.gles",
			"translation":[
				-12.729347229003906,
				5.80206298828125,
				-24.125041961669922
			]
		},
		{
			"children":[
				5
			],
			"name":"Sketchfab_model",
			"rotation":[
				-0.70710688829422,
				0,
				0,
				0.7071066498756409
			],
			"scale":[
				0.1530459076166153,
				0.1530458927154541,
				0.1530458927154541
			],
			"translation":[
				-0.41212010383605957,
				3.730170726776123,
				4.307403564453125
			]
		}
	],
	"materials":[
		{
			"doubleSided":true,
			"name":"Scene_-_Root.001",
			"pbrMetallicRoughness":{
				"baseColorTexture":{
					"index":0
				},
				"metallicFactor":0,
				"roughnessFactor":0
			}
		}
	],
	"meshes":[
		{
			"name":"Object_0.001",
			"primitives":[
				{
					"attributes":{
						"POSITION":0,
						"NORMAL":1,
						"TEXCOORD_0":2
					},
					"indices":3,
					"material":0
				}
			]
		},
		{
			"name":"Object_1.001",
			"primitives":[
				{
					"attributes":{
						"POSITION":4,
						"NORMAL":5,
						"TEXCOORD_0":6
					},
					"indices":7,
					"material":0
				}
			]
		},
		{
			"name":"Object_2.001",
			"primitives":[
				{
					"attributes":{
						"POSITION":8,
						"NORMAL":9,
						"TEXCOORD_0":10
					},
					"indices":11,
					"material":0
				}
			]
		},
		{
			"name":"Object_3.001",
			"primitives":[
				{
					"attributes":{
						"POSITION":12,
						"NORMAL":13,
						"TEXCOORD_0":14
					},
					"indices":15,
					"material":0
				}
			]
		}
	],
	"textures":[
		{
			"sampler":0,
			"source":0
		}
	],
	"images":[
		{
			"mimeType":"image/jpeg",
			"name":"Scene_-_Root_baseColor",
			"uri":"textures/Scene_-_Root_baseColor.jpg"
		}
	],
	"accessors":[
		{
			"bufferView":0,
			"componentType":5126,
			"count":65595,
			"max":[
				15.850388526916504,
				13.676654815673828,
				9.521852493286133
			],
			"min":[
				-15.58741283416748,
				-17.435501098632812,
				-8.962137222290039
			],
			"type":"VEC3"
		},
		{
			"bufferView":1,
			"componentType":5126,
			"count":65595,
			"type":"VEC3"
		},
		{
			"bufferView":2,
			"componentType":5126,
			"count":65595,
			"type":"VEC2"
		},
		{
			"bufferView":3,
			"componentType":5125,
			"count":263373,
			"type":"SCALAR"
		},
		{
			"bufferView":4,
			"componentType":5126,
			"count":65579,
			"max":[
				16.378494262695312,
				12.735126495361328,
				8.899085998535156
			],
			"min":[
				-15.252350807189941,
				-19.162904739379883,
				-9.659759521484375
			],
			"type":"VEC3"
		},
		{
			"bufferView":5,
			"componentType":5126,
			"count":65579,
			"type":"VEC3"
		},
		{
			"bufferView":6,
			"componentType":5126,
			"count":65579,
			"type":"VEC2"
		},
		{
			"bufferView":7,
			"componentType":5125,
			"count":243804,
			"type":"SCALAR"
		},
		{
			"bufferView":8,
			"componentType":5126,
			"count":67115,
			"max":[
				15.910309791564941,
				13.888141632080078,
				9.316673278808594
			],
			"min":[
				-15.62485122680664,
				-17.884525299072266,
				-8.81338119506836
			],
			"type":"VEC3"
		},
		{
			"bufferView":9,
			"componentType":5126,
			"count":67115,
			"type":"VEC3"
		},
		{
			"bufferView":10,
			"componentType":5126,
			"count":67115,
			"type":"VEC2"
		},
		{
			"bufferView":11,
			"componentType":5125,
			"count":162828,
			"type":"SCALAR"
		},
		{
			"bufferView":12,
			"componentType":5126,
			"count":12640,
			"max":[
				16.588380813598633,
				7.689119338989258,
				4.459587097167969
			],
			"min":[
				-13.094196319580078,
				-18.381261825561523,
				-12.971622467041016
			],
			"type":"VEC3"
		},
		{
			"bufferView":13,
			"componentType":5126,
			"count":12640,
			"type":"VEC3"
		},
		{
			"bufferView":14,
			"componentType":5126,
			"count":12640,
			"type":"VEC2"
		},
		{
			"bufferView":15,
			"componentType":5123,
			"count":16800,
			"type":"SCALAR"
		}
	],
	"bufferViews":[
		{
			"buffer":0,
			"byteLength":787140,
			"byteOffset":0,
			"target":34962
		},
		{
			"buffer":0,
			"byteLength":787140,
			"byteOffset":787140,
			"target":34962
		},
		{
			"buffer":0,
			"byteLength":524760,
			"byteOffset":1574280,
			"target":34962
		},
		{
			"buffer":0,
			"byteLength":1053492,
			"byteOffset":2099040,
			"target":34963
		},
		{
			"buffer":0,
			"byteLength":786948,
			"byteOffset":3152532,
			"target":34962
		},
		{
			"buffer":0,
			"byteLength":786948,
			"byteOffset":3939480,
			"target":34962
		},
		{
			"buffer":0,
			"byteLength":524632,
			"byteOffset":4726428,
			"target":34962
		},
		{
			"buffer":0,
			"byteLength":975216,
			"byteOffset":5251060,
			"target":34963
		},
		{
			"buffer":0,
			"byteLength":805380,
			"byteOffset":6226276,
			"target":34962
		},
		{
			"buffer":0,
			"byteLength":805380,
			"byteOffset":7031656,
			"target":34962
		},
		{
			"buffer":0,
			"byteLength":536920,
			"byteOffset":7837036,
			"target":34962
		},
		{
			"buffer":0,
			"byteLength":651312,
			"byteOffset":8373956,
			"target":34963
		},
		{
			"buffer":0,
			"byteLength":151680,
			"byteOffset":9025268,
			"target":34962
		},
		{
			"buffer":0,
			"byteLength":151680,
			"byteOffset":9176948,
			"target":34962
		},
		{
			"buffer":0,
			"byteLength":101120,
			"byteOffset":9328628,
			"target":34962
		},
		{
			"buffer":0,
			"byteLength":33600,
			"byteOffset":9429748,
			"target":34963
		}
	],
	"samplers":[
		{
			"magFilter":9729,
			"minFilter":9987
		}
	],
	"buffers":[
		{
			"byteLength":9463348,
			"uri":"coba.bin"
		}
	]
}
