{
	"asset":{
		"generator":"Khronos glTF Blender I/O v3.6.27",
		"version":"2.0"
	},
	"extensionsUsed":[
		"KHR_materials_unlit"
	],
	"scene":0,
	"scenes":[
		{
			"name":"Scene",
			"nodes":[
				3
			]
		}
	],
	"nodes":[
		{
			"mesh":0,
			"name":"Material-material",
			"scale":[
				0.3511929512023926,
				0.3511929512023926,
				0.3511929512023926
			]
		},
		{
			"children":[
				0
			],
			"name":"TulumRuins"
		},
		{
			"children":[
				1
			],
			"name":"Collada visual scene group"
		},
		{
			"children":[
				2
			],
			"name":"Sketchfab_model",
			"rotation":[
				-0.70710688829422,
				0,
				0,
				0.7071066498756409
			],
			"translation":[
				2.1143295764923096,
				0,
				-0.44512200355529785
			]
		}
	],
	"materials":[
		{
			"doubleSided":true,
			"extensions":{
				"KHR_materials_unlit":{}
			},
			"name":"Material.001",
			"pbrMetallicRoughness":{
				"baseColorTexture":{
					"index":0,
					"texCoord":0
				},
				"metallicFactor":0,
				"roughnessFactor":0.9
			}
		}
	],
	"meshes":[
		{
			"name":"Material-material",
			"primitives":[
				{
					"attributes":{
						"POSITION":0,
						"NORMAL":1,
						"TEXCOORD_0":2
					},
					"indices":3,
					"material":0
				}
			]
		}
	],
	"textures":[
		{
			"sampler":0,
			"source":0
		}
	],
	"images":[
		{
			"mimeType":"image/jpeg",
			"name":"Material_baseColor",
			"uri":"Material_baseColor.jpg"
		}
	],
	"accessors":[
		{
			"bufferView":0,
			"componentType":5126,
			"count":17043,
			"max":[
				5.555039882659912,
				10.419360160827637,
				4.287423133850098
			],
			"min":[
				-18.93375015258789,
				-14.225749969482422,
				-0.7459806203842163
			],
			"type":"VEC3"
		},
		{
			"bufferView":1,
			"componentType":5126,
			"count":17043,
			"type":"VEC3"
		},
		{
			"bufferView":2,
			"componentType":5126,
			"count":17043,
			"type":"VEC2"
		},
		{
			"bufferView":3,
			"componentType":5123,
			"count":62886,
			"type":"SCALAR"
		}
	],
	"bufferViews":[
		{
			"buffer":0,
			"byteLength":204516,
			"byteOffset":0,
			"target":34962
		},
		{
			"buffer":0,
			"byteLength":204516,
			"byteOffset":204516,
			"target":34962
		},
		{
			"buffer":0,
			"byteLength":136344,
			"byteOffset":409032,
			"target":34962
		},
		{
			"buffer":0,
			"byteLength":125772,
			"byteOffset":545376,
			"target":34963
		}
	],
	"samplers":[
		{
			"magFilter":9729,
			"minFilter":9987
		}
	],
	"buffers":[
		{
			"byteLength":671148,
			"uri":"tulum.bin"
		}
	]
}
