{
	"asset":{
		"generator":"Khronos glTF Blender I/O v3.6.27",
		"version":"2.0"
	},
	"extensionsUsed":[
		"KHR_texture_transform"
	],
	"extensionsRequired":[
		"KHR_texture_transform"
	],
	"scene":0,
	"scenes":[
		{
			"name":"Scene",
			"nodes":[
				0
			]
		}
	],
	"nodes":[
		{
			"mesh":0,
			"name":"uxmal-pyramid-of-the-diviner-mexico-by-miniworld3d",
			"scale":[
				0.19416217505931854,
				0.19416217505931854,
				0.19416217505931854
			]
		}
	],
	"materials":[
		{
			"doubleSided":true,
			"name":"Material.002",
			"normalTexture":{
				"index":0,
				"scale":0.4999999701976776
			},
			"pbrMetallicRoughness":{
				"baseColorTexture":{
					"extensions":{
						"KHR_texture_transform":{
							"offset":[
								0,
								-5
							],
							"scale":[
								6,
								6
							]
						}
					},
					"index":1
				},
				"metallicFactor":0,
				"roughnessFactor":0.5
			}
		}
	],
	"meshes":[
		{
			"name":"uxmal-pyramid-of-the-diviner-mexico-by-miniworld3d",
			"primitives":[
				{
					"attributes":{
						"POSITION":0,
						"NORMAL":1,
						"TEXCOORD_0":2
					},
					"indices":3,
					"material":0
				}
			]
		}
	],
	"textures":[
		{
			"sampler":0,
			"source":0
		},
		{
			"sampler":0,
			"source":1
		}
	],
	"images":[
		{
			"mimeType":"image/jpeg",
			"name":"Rocks004_1K-JPG_NormalDX",
			"uri":"textures/Rocks004_1K-JPG_NormalDX.jpg"
		},
		{
			"mimeType":"image/jpeg",
			"name":"Rocks004_1K-JPG_Color",
			"uri":"textures/Rocks004_1K-JPG_Color.jpg"
		}
	],
	"accessors":[
		{
			"bufferView":0,
			"componentType":5126,
			"count":120517,
			"max":[
				23.700000762939453,
				26.299999237060547,
				20.5
			],
			"min":[
				-23.700000762939453,
				-0.6000000238418579,
				-21
			],
			"type":"VEC3"
		},
		{
			"bufferView":1,
			"componentType":5126,
			"count":120517,
			"type":"VEC3"
		},
		{
			"bufferView":2,
			"componentType":5126,
			"count":120517,
			"type":"VEC2"
		},
		{
			"bufferView":3,
			"componentType":5125,
			"count":160404,
			"type":"SCALAR"
		}
	],
	"bufferViews":[
		{
			"buffer":0,
			"byteLength":1446204,
			"byteOffset":0,
			"target":34962
		},
		{
			"buffer":0,
			"byteLength":1446204,
			"byteOffset":1446204,
			"target":34962
		},
		{
			"buffer":0,
			"byteLength":964136,
			"byteOffset":2892408,
			"target":34962
		},
		{
			"buffer":0,
			"byteLength":641616,
			"byteOffset":3856544,
			"target":34963
		}
	],
	"samplers":[
		{
			"magFilter":9729,
			"minFilter":9987
		}
	],
	"buffers":[
		{
			"byteLength":4498160,
			"uri":"uxmal.bin"
		}
	]
}
